<svg id="Component_10_2" data-name="Component 10 – 2" xmlns="http://www.w3.org/2000/svg" width="130" height="130" viewBox="0 0 130 130">
  <circle id="Ellipse_8" data-name="Ellipse 8" cx="65" cy="65" r="65" fill="#013a7b" opacity="0.03"/>
  <g id="user_6_" data-name="user (6)" transform="translate(32 32)">
    <g id="Group_8" data-name="Group 8">
      <path id="Path_7" data-name="Path 7" d="M53.476,33.967H56.35a4.873,4.873,0,1,0,0-1.934H53.476a20.42,20.42,0,0,0-5.32-12.822l5.177-5.177a6.185,6.185,0,1,0-1.367-1.367l-5.177,5.177a20.42,20.42,0,0,0-12.822-5.32V9.65a4.873,4.873,0,1,0-1.934,0v2.874a20.421,20.421,0,0,0-12.822,5.32l-5.177-5.177a6.17,6.17,0,0,0-1.543-8.749.967.967,0,0,0-1.082,1.6,4.241,4.241,0,1,1-3.529-.563A.967.967,0,0,0,7.353,3.1a6.176,6.176,0,1,0,5.314,10.937l5.177,5.177a20.42,20.42,0,0,0-5.32,12.822H9.65a4.873,4.873,0,1,0,0,1.934h2.874a20.42,20.42,0,0,0,5.32,12.822l-5.177,5.177a6.185,6.185,0,1,0,1.367,1.367l5.177-5.177a20.42,20.42,0,0,0,12.822,5.32V56.35a4.874,4.874,0,1,0,1.934,0V53.476a20.421,20.421,0,0,0,12.822-5.32l5.177,5.177A6.172,6.172,0,1,0,62.819,55a.967.967,0,1,0-1.834.611,4.24,4.24,0,1,1-2.473-2.6.967.967,0,0,0,.707-1.8,6.17,6.17,0,0,0-5.886.755l-5.177-5.177a20.422,20.422,0,0,0,5.32-12.822Zm7.651-3.907A2.94,2.94,0,1,1,58.187,33,2.943,2.943,0,0,1,61.127,30.06ZM56.96,4.8A4.242,4.242,0,1,1,52.718,9.04,4.247,4.247,0,0,1,56.96,4.8Zm-26.9.075A2.94,2.94,0,1,1,33,7.813a2.943,2.943,0,0,1-2.94-2.94ZM4.873,35.94A2.94,2.94,0,1,1,7.813,33,2.943,2.943,0,0,1,4.873,35.94ZM33,14.434A18.566,18.566,0,1,1,14.434,33,18.587,18.587,0,0,1,33,14.434ZM9.04,61.2a4.242,4.242,0,1,1,4.242-4.242A4.247,4.247,0,0,1,9.04,61.2Zm26.9-.075A2.94,2.94,0,1,1,33,58.187,2.943,2.943,0,0,1,35.94,61.127Z" fill="#013a7b"/>
      <path id="Path_8" data-name="Path 8" d="M164.619,173.377H173.3a.967.967,0,0,0,0-1.934h-2.246v-1.637a.967.967,0,0,0-1.934,0v1.637h-3.535v-4.762a4.246,4.246,0,0,1,4.241-4.242h11.46a4.246,4.246,0,0,1,4.241,4.242v4.762h-3.535v-1.637a.967.967,0,0,0-1.934,0v1.637h-2.246a.967.967,0,1,0,0,1.934h8.682a.967.967,0,0,0,.967-.967v-5.729a6.182,6.182,0,0,0-6.174-6.176h-.718a7.478,7.478,0,1,0-10.024,0h-.718a6.182,6.182,0,0,0-6.174,6.176v5.729A.966.966,0,0,0,164.619,173.377Zm5.394-18.415a5.544,5.544,0,1,1,5.544,5.544,5.55,5.55,0,0,1-5.544-5.544Z" transform="translate(-142.556 -128.472)" fill="#013a7b"/>
    </g>
  </g>
</svg>
