<svg xmlns="http://www.w3.org/2000/svg" width="86.446" height="55" viewBox="0 0 86.446 55">
  <g id="Group_29" data-name="Group 29" opacity="0.05">
    <path id="Path_2" data-name="Path 2" d="M145.257,31.5a14.3,14.3,0,0,0-7.991-10.836,19.712,19.712,0,0,0-8.916-1.921c-6.956-.026-13.912,0-20.868,0-.187,0-.374.022-.562.034a.3.3,0,0,0,.239.314.3.3,0,0,1-.239-.314c-.863-.106-1.73-.016-2.594-.048-.265-.01-.309.137-.307.356q.023,2.514.039,5.029c-.015.2-.043.408-.043.613q0,3.208.005,6.416c0,.824.026,1.648.04,2.472-.112,1.031-.017,2.066-.048,3.1-.008.274.158.292.367.29q2.229-.018,4.458-.029c1.639.008,3.279.014,4.918.028.243,0,.386-.036.384-.333-.016-2.6-.02-5.2-.028-7.8.056-.888.056-.885.966-.888q2.709-.01,5.419-.025l6.044.026a18.456,18.456,0,0,1,2.754.209,7.223,7.223,0,0,1,.254,14.283,11.885,11.885,0,0,1-2.259.287c-2.04-.122-4.077-.036-6.116-.04h-8.491c-.206-.009-.413-.027-.619-.026-2.937.009-5.874.028-8.812.031q-7.26.007-14.519,0c-.242,0-.485.031-.727.048h0c-2.756-.008-5.512-.129-8.269-.051a46.353,46.353,0,0,0-5.7.1,16.152,16.152,0,0,0-3.917.752,4,4,0,0,0-1.234.36,13.926,13.926,0,0,0-8.1,6.884,16.611,16.611,0,0,0-1.565,8.623,14.737,14.737,0,0,0,1.955,6.884c2.368,3.951,6.015,6,10.405,6.908a25.083,25.083,0,0,0,5.225.482c4.15-.019,8.3-.02,12.449-.028,1.036.009,2.073.025,3.109.026q3.932.005,7.864,0c.254,0,.534.078.528-.36-.027-1.922-.034-3.844-.048-5.766a.713.713,0,0,0,.039-.163c0-3.335-.007-6.67.006-10.005,0-.443-.265-.361-.518-.361-3.015,0-6.03.007-9.044-.012-.43,0-.574.089-.569.55.025,2.11.009,4.22.008,6.331,0,1.092,0,1.092-1.035,1.169-2.555-.008-5.109-.022-7.663-.024-1.521,0-3.042.015-4.562.024-.71-.078-1.428-.115-2.129-.243a6.92,6.92,0,0,1-4.983-3.069,7.156,7.156,0,0,1,.888-8.238,8.834,8.834,0,0,1,5.839-2.154c1.069-.027,2.137-.062,3.206-.094,1.255.107,2.512.036,3.768.04,1.651,0,3.3-.025,4.953-.04.2.017.409.048.614.048q2.684,0,5.367,0c2.919,0,5.839-.036,8.757.011,2.748.044,5.5.036,8.244.019a5.975,5.975,0,0,1,.238-.955,5.975,5.975,0,0,0-.238.955l8.716.013c2.905.028,5.811.063,8.717-.012a21.725,21.725,0,0,0,4.425-.437,13.3,13.3,0,0,0,10.892-9.338A20.035,20.035,0,0,0,145.257,31.5Z" transform="translate(-59.177 -18.719)" fill="#013a7b"/>
    <path id="Path_3" data-name="Path 3" d="M267.293,197.987q-.009-3.844-.027-7.687c.009-.526-.007-1.054.036-1.577.035-.422-.1-.543-.527-.54q-4.515.031-9.031.006c-.43,0-.582.093-.576.556.024,2.032,0,4.064.009,6.1a5.1,5.1,0,0,0,.044,1.235.819.819,0,0,0-.034.165c-.005,2.714,0,5.428-.023,8.141,0,.443.227.423.528.423,3.016,0,6.031-.009,9.047.009.429,0,.577-.089.57-.551C267.282,202.172,267.3,200.079,267.293,197.987Z" transform="translate(-212.336 -149.815)" fill="#013a7b"/>
    <path id="Path_4" data-name="Path 4" d="M198.395,37.029q4.716-.014,9.432,0c.228,0,.352-.051.345-.309-.034-1.146.062-2.294-.05-3.438.013-.2.038-.41.039-.614q.007-4.052.007-8.1c0-.26-.028-.521-.043-.781.013-1.564.023-3.128.043-4.692,0-.273-.107-.356-.37-.356q-4.7.008-9.393,0c-.259,0-.367.074-.365.354.018,2.093.023,4.186.032,6.279h0q0,5.545,0,11.089C198.063,36.709,197.889,37.03,198.395,37.029Z" transform="translate(-166.597 -18.728)" fill="#013a7b"/>
  </g>
</svg>
