<svg xmlns="http://www.w3.org/2000/svg" width="46" height="46" viewBox="0 0 46 46">
  <g id="Group_32" data-name="Group 32" transform="translate(-1598 -5436)">
    <rect id="Rectangle_1510" data-name="Rectangle 1510" width="46" height="46" rx="3" transform="translate(1598 5436)" fill="#fff" opacity="0.08"/>
    <g id="linkedin" transform="translate(1612 5449)">
      <rect id="Rectangle_1511" data-name="Rectangle 1511" width="4.696" height="14.438" transform="translate(0 6.563)" fill="#fff"/>
      <path id="Path_33" data-name="Path 33" d="M170.925,160.169c-.05-.016-.1-.033-.15-.047s-.126-.026-.19-.037a4.208,4.208,0,0,0-.843-.085h0a6.525,6.525,0,0,0-5.047,2.76V160H160v14.438h4.7v-7.875s3.549-4.943,5.047-1.312v9.188h4.695v-9.743A4.682,4.682,0,0,0,170.925,160.169Z" transform="translate(-153.438 -153.438)" fill="#fff"/>
      <circle id="Ellipse_11" data-name="Ellipse 11" cx="2.5" cy="2.5" r="2.5" fill="#fff"/>
    </g>
  </g>
</svg>
