<svg xmlns="http://www.w3.org/2000/svg" width="47" height="46" viewBox="0 0 47 46">
  <g id="Group_31" data-name="Group 31" transform="translate(-1534 -5436)">
    <rect id="Rectangle_1509" data-name="Rectangle 1509" width="47" height="46" rx="3" transform="translate(1534 5436)" fill="#fff" opacity="0.08"/>
    <g id="instagram" transform="translate(1547.5 5448.5)">
      <path id="Path_4" data-name="Path 4" d="M20.743,6.114a7.633,7.633,0,0,0-.484-2.526,5.1,5.1,0,0,0-1.2-1.842,5.1,5.1,0,0,0-1.842-1.2A7.633,7.633,0,0,0,14.694.063C13.582.011,13.228,0,10.4,0S7.223.011,6.114.062A7.638,7.638,0,0,0,3.589.546a5.1,5.1,0,0,0-1.842,1.2,5.1,5.1,0,0,0-1.2,1.842A7.633,7.633,0,0,0,.063,6.113C.011,7.223,0,7.578,0,10.4s.012,3.18.063,4.294a7.633,7.633,0,0,0,.484,2.526,5.1,5.1,0,0,0,1.2,1.841,5.1,5.1,0,0,0,1.842,1.2,7.633,7.633,0,0,0,2.526.484c1.11.051,1.464.063,4.294.063s3.179-.011,4.294-.063a7.633,7.633,0,0,0,2.526-.484,5.318,5.318,0,0,0,3.043-3.043,7.633,7.633,0,0,0,.473-2.524c.051-1.11.063-1.464.063-4.294s-.012-3.179-.063-4.294ZM18.87,14.606a5.756,5.756,0,0,1-.358,1.932,3.445,3.445,0,0,1-1.974,1.972,5.755,5.755,0,0,1-1.932.358c-1.1.051-1.425.061-4.2.061s-3.106-.009-4.2-.058a5.757,5.757,0,0,1-1.935-.361,3.224,3.224,0,0,1-1.2-.779,3.223,3.223,0,0,1-.78-1.194,5.755,5.755,0,0,1-.358-1.932c-.05-1.1-.061-1.425-.061-4.2s.01-3.107.061-4.2a5.76,5.76,0,0,1,.358-1.93,3.225,3.225,0,0,1,.779-1.2,3.221,3.221,0,0,1,1.2-.781A5.754,5.754,0,0,1,6.2,1.935c1.1-.05,1.425-.061,4.2-.061h0c2.778,0,3.107.01,4.2.061a5.756,5.756,0,0,1,1.932.358,3.226,3.226,0,0,1,1.2.779,3.221,3.221,0,0,1,.772,1.2A5.751,5.751,0,0,1,18.871,6.2c.05,1.1.061,1.425.061,4.2s-.01,3.107-.061,4.2Zm0,0" fill="#fff"/>
      <path id="Path_5" data-name="Path 5" d="M129.881,124.539a5.343,5.343,0,1,0,5.343,5.343A5.343,5.343,0,0,0,129.881,124.539Zm0,8.81a3.467,3.467,0,1,1,3.467-3.467A3.467,3.467,0,0,1,129.881,133.349Zm0,0" transform="translate(-119.478 -119.478)" fill="#fff"/>
      <path id="Path_6" data-name="Path 6" d="M364.426,89.874a1.248,1.248,0,1,1-1.248-1.248,1.248,1.248,0,0,1,1.248,1.248Zm0,0" transform="translate(-347.222 -85.024)" fill="#fff"/>
    </g>
  </g>
</svg>
