<svg xmlns="http://www.w3.org/2000/svg" xmlns:xlink="http://www.w3.org/1999/xlink" width="53" height="53" viewBox="0 0 53 53">
  <defs>
    <radialGradient id="radial-gradient" cx="0.5" cy="0.5" r="0.5" gradientUnits="objectBoundingBox">
      <stop offset="0" stop-color="#07d6db"/>
      <stop offset="1" stop-color="#063984"/>
    </radialGradient>
  </defs>
  <g id="Group_35" data-name="Group 35" transform="translate(-1590 -1166)">
    <g id="Rectangle_1502" data-name="Rectangle 1502" transform="translate(1590 1166)" fill="#fff" stroke="rgba(1,58,123,0.15)" stroke-width="1">
      <rect width="53" height="53" stroke="none"/>
      <rect x="0.5" y="0.5" width="52" height="52" fill="none"/>
    </g>
    <path id="Path_31" data-name="Path 31" d="M98.021,29.116a6.045,6.045,0,0,1-4.951,4.244,9.875,9.875,0,0,1-2.011.2c-1.321.034-2.641.018-3.962.006l-3.962-.006a2.716,2.716,0,0,1,.108-.434,2.716,2.716,0,0,0-.108.434c-1.249.008-2.5.012-3.747-.008-1.326-.021-2.653,0-3.98,0q-1.22,0-2.439,0c-.093,0-.186-.014-.279-.022-.75.007-1.5.02-2.251.018-.571,0-1.142.03-1.713-.018-.486.014-.972.03-1.457.043a4.015,4.015,0,0,0-2.654.979,3.253,3.253,0,0,0-.4,3.744,3.145,3.145,0,0,0,2.265,1.4c.319.058.645.075.968.11.691,0,1.382-.011,2.074-.011,1.161,0,2.322.007,3.483.011.47-.035.47-.035.47-.531,0-.959.008-1.918,0-2.878,0-.209.063-.251.258-.25,1.37.008,2.741,0,4.111.005.115,0,.236-.037.235.164-.006,1.516,0,3.032,0,4.548a.324.324,0,0,1-.018.074c.006.874.009,1.747.022,2.621,0,.2-.125.163-.24.163q-1.787,0-3.574,0c-.471,0-.942-.008-1.413-.012-1.886,0-3.772,0-5.659.013a11.4,11.4,0,0,1-2.375-.219,6.783,6.783,0,0,1-4.73-3.14,6.7,6.7,0,0,1-.889-3.129,7.55,7.55,0,0,1,.711-3.92,6.33,6.33,0,0,1,3.684-3.129,1.82,1.82,0,0,1,.561-.164,7.342,7.342,0,0,1,1.78-.342,21.068,21.068,0,0,1,2.591-.044c1.253-.036,2.506.019,3.758.023h0c.11-.008.22-.022.331-.022q3.3,0,6.6,0c1.335,0,2.67-.01,4.005-.014.094,0,.188.008.281.012h3.859c.926,0,1.852-.037,2.78.018a5.4,5.4,0,0,0,1.027-.131,3.283,3.283,0,0,0-.115-6.492,8.388,8.388,0,0,0-1.252-.095l-2.747-.012-2.463.011c-.414,0-.414,0-.439.4,0,1.182.006,2.364.013,3.546,0,.135-.064.152-.175.151-.745-.006-1.49-.009-2.235-.013q-1.013.006-2.026.013c-.1,0-.171-.007-.167-.132.014-.469-.029-.939.022-1.408-.006-.374-.017-.749-.018-1.123q0-1.458,0-2.916c0-.093.013-.186.02-.278q-.008-1.143-.018-2.286c0-.1.019-.166.139-.162.393.014.787-.027,1.179.022a.135.135,0,0,0,.108.143.135.135,0,0,1-.108-.143c.085-.005.17-.015.255-.016,3.162,0,6.323-.011,9.485,0a8.96,8.96,0,0,1,4.053.873A6.5,6.5,0,0,1,98.3,24.526,9.107,9.107,0,0,1,98.021,29.116Zm-13.864,11.5q0-1.747-.012-3.494c0-.239,0-.479.016-.717.016-.192-.045-.247-.24-.245q-2.052.014-4.105,0c-.2,0-.264.042-.262.253.011.924,0,1.847,0,2.771a2.32,2.32,0,0,0,.02.561.373.373,0,0,0-.015.075c0,1.233,0,2.467-.01,3.7,0,.2.1.192.24.192,1.371,0,2.741,0,4.112,0,.2,0,.262-.041.259-.251C84.152,42.517,84.159,41.566,84.157,40.615ZM73.63,27.037q2.144-.006,4.287,0c.1,0,.16-.023.157-.141-.016-.521.028-1.042-.023-1.563.006-.093.017-.186.018-.279q0-1.842,0-3.683c0-.118-.013-.237-.02-.355.006-.711.01-1.422.02-2.132,0-.124-.049-.162-.168-.162q-2.135,0-4.269,0c-.118,0-.167.034-.166.161.008.951.01,1.9.014,2.854h0q0,2.52,0,5.04C73.479,26.891,73.4,27.037,73.63,27.037Z" transform="translate(1537.823 1161.281)" fill="url(#radial-gradient)"/>
  </g>
</svg>
