<svg xmlns="http://www.w3.org/2000/svg" width="47" height="46" viewBox="0 0 47 46">
  <g id="Group_30" data-name="Group 30" transform="translate(-1471 -5436)">
    <rect id="Rectangle_1508" data-name="Rectangle 1508" width="47" height="46" rx="3" transform="translate(1471 5436)" fill="#fff" opacity="0.08"/>
    <g id="twitter" transform="translate(1484 5403)">
      <g id="Group_27" data-name="Group 27" transform="translate(0 48)">
        <path id="Path_32" data-name="Path 32" d="M22,49.959a10,10,0,0,1-2.6.659,4.226,4.226,0,0,0,1.984-2.308,9.464,9.464,0,0,1-2.86,1.011A4.7,4.7,0,0,0,15.231,48a4.351,4.351,0,0,0-4.507,4.176,3.992,3.992,0,0,0,.1.952,13.131,13.131,0,0,1-9.3-4.367,3.968,3.968,0,0,0-.617,2.11,4.109,4.109,0,0,0,2,3.47A4.731,4.731,0,0,1,.88,53.827v.046a4.289,4.289,0,0,0,3.614,4.1,4.843,4.843,0,0,1-1.183.137,4.3,4.3,0,0,1-.854-.071A4.523,4.523,0,0,0,6.671,60.95,9.535,9.535,0,0,1,1.079,62.73,9.119,9.119,0,0,1,0,62.673a13.448,13.448,0,0,0,6.919,1.874c8.3,0,12.837-6.364,12.837-11.881,0-.185-.007-.363-.017-.54A8.66,8.66,0,0,0,22,49.959Z" transform="translate(0 -48)" fill="#fff"/>
      </g>
    </g>
  </g>
</svg>
