<svg id="Component_11_2" data-name="Component 11 – 2" xmlns="http://www.w3.org/2000/svg" width="130" height="130" viewBox="0 0 130 130">
  <circle id="Ellipse_9" data-name="Ellipse 9" cx="65" cy="65" r="65" fill="#013a7b" opacity="0.03"/>
  <g id="idea_1_" data-name="idea (1)" transform="translate(-8.552 32)">
    <g id="Group_9" data-name="Group 9" transform="translate(44.447)">
      <path id="Path_9" data-name="Path 9" d="M125.937,91.7a20.551,20.551,0,0,0,12.039-18.676,20.344,20.344,0,0,0-3.864-11.979.967.967,0,0,0-1.568,1.132,18.423,18.423,0,0,1,3.5,10.848,18.613,18.613,0,0,1-10.9,16.915,3.6,3.6,0,0,0-2.117,3.261v4.379H111.933V93.205a3.57,3.57,0,0,0-2.09-3.249,18.567,18.567,0,1,1,19.813-30.94.967.967,0,0,0,1.269-1.459,20.5,20.5,0,1,0-21.879,34.16A1.633,1.633,0,0,1,110,93.205v4.379h-.335a2.272,2.272,0,0,0-2.269,2.27v1.562a2.27,2.27,0,0,0,2.095,2.26l.819,5.079a3.557,3.557,0,0,0,3.526,3h1.386a.967.967,0,1,0,0-1.934h-1.386a1.632,1.632,0,0,1-1.617-1.377l-.768-4.763h1.515a.967.967,0,1,0,0-1.934h-3.3a.336.336,0,0,1-.335-.335V99.854a.336.336,0,0,1,.335-.336H125.29a.336.336,0,0,1,.335.336v1.562a.336.336,0,0,1-.335.335h-7.813a.967.967,0,1,0,0,1.934H123.5l-.768,4.762a1.632,1.632,0,0,1-1.617,1.377h-1.386a.967.967,0,0,0,0,1.934h1.386a3.557,3.557,0,0,0,3.526-3l.819-5.079a2.27,2.27,0,0,0,2.095-2.26V99.854a2.272,2.272,0,0,0-2.269-2.27h-.335V93.205A1.658,1.658,0,0,1,125.937,91.7Z" transform="translate(-90.207 -45.759)" fill="#013a7b"/>
      <path id="Path_10" data-name="Path 10" d="M163.646,122.233v5.729a.967.967,0,0,0,.967.967h21.876a.967.967,0,0,0,.967-.967v-5.729a6.182,6.182,0,0,0-6.175-6.176h-.717a7.478,7.478,0,1,0-10.024,0h-.717A6.183,6.183,0,0,0,163.646,122.233Zm6.361-11.719a5.544,5.544,0,1,1,5.544,5.544A5.55,5.55,0,0,1,170.007,110.514Zm11.273,7.478a4.247,4.247,0,0,1,4.242,4.242V127h-3.536v-1.638a.967.967,0,0,0-1.934,0V127h-9v-1.638a.967.967,0,1,0-1.934,0V127h-3.536v-4.763a4.247,4.247,0,0,1,4.242-4.242Z" transform="translate(-148.281 -89.754)" fill="#013a7b"/>
      <path id="Path_11" data-name="Path 11" d="M249.467,4.538a.967.967,0,0,0,.967-.967V.967a.967.967,0,0,0-1.934,0v2.6A.967.967,0,0,0,249.467,4.538Z" transform="translate(-222.196)" fill="#013a7b"/>
      <path id="Path_12" data-name="Path 12" d="M147.9,31.041a.967.967,0,1,0,1.674-.967l-1.3-2.255a.967.967,0,0,0-1.674.967Z" transform="translate(-133.32 -23.812)" fill="#013a7b"/>
      <path id="Path_13" data-name="Path 13" d="M72.267,103.829l2.255,1.3a.967.967,0,0,0,.967-1.674l-2.255-1.3a.967.967,0,0,0-.967,1.674Z" transform="translate(-68.26 -88.873)" fill="#013a7b"/>
      <path id="Path_14" data-name="Path 14" d="M48.985,205.02a.967.967,0,0,0-.967-.967h-2.6a.967.967,0,0,0,0,1.934h2.6A.967.967,0,0,0,48.985,205.02Z" transform="translate(-44.447 -177.749)" fill="#013a7b"/>
      <path id="Path_15" data-name="Path 15" d="M74.523,296.105l-2.255,1.3a.967.967,0,1,0,.967,1.674l2.255-1.3a.967.967,0,0,0-.967-1.674Z" transform="translate(-68.26 -257.823)" fill="#013a7b"/>
      <path id="Path_16" data-name="Path 16" d="M340.907,31.4a.966.966,0,0,0,1.321-.354l1.3-2.255a.967.967,0,0,0-1.674-.967l-1.3,2.255A.967.967,0,0,0,340.907,31.4Z" transform="translate(-302.27 -23.812)" fill="#013a7b"/>
      <path id="Path_17" data-name="Path 17" d="M408.685,105.26a.962.962,0,0,0,.483-.13l2.255-1.3a.967.967,0,1,0-.967-1.674l-2.255,1.3a.967.967,0,0,0,.484,1.8Z" transform="translate(-360.889 -88.873)" fill="#013a7b"/>
      <path id="Path_18" data-name="Path 18" d="M435.921,204.053h-2.6a.967.967,0,0,0,0,1.934h2.6a.967.967,0,0,0,0-1.934Z" transform="translate(-382.347 -177.749)" fill="#013a7b"/>
      <path id="Path_19" data-name="Path 19" d="M411.423,297.408l-2.255-1.3a.967.967,0,1,0-.967,1.674l2.255,1.3a.967.967,0,0,0,.967-1.674Z" transform="translate(-360.889 -257.822)" fill="#013a7b"/>
    </g>
  </g>
</svg>
