<svg xmlns="http://www.w3.org/2000/svg" xmlns:xlink="http://www.w3.org/1999/xlink" width="108.292" height="68.899" viewBox="0 0 108.292 68.899">
  <defs>
    <radialGradient id="radial-gradient" cx="0.5" cy="0.5" r="0.5" gradientUnits="objectBoundingBox">
      <stop offset="0" stop-color="#07d6db"/>
      <stop offset="1" stop-color="#063984"/>
    </radialGradient>
  </defs>
  <path id="Path_28" data-name="Path 28" d="M166.235,47.376c-2.239,6.555-6.823,10.458-13.645,11.7a27.215,27.215,0,0,1-5.543.548c-3.64.1-7.28.05-10.919.016l-10.918-.016a7.485,7.485,0,0,1,.3-1.2,7.485,7.485,0,0,0-.3,1.2c-3.442.022-6.884.032-10.327-.023-3.655-.059-7.313-.014-10.969-.013q-3.361,0-6.723,0c-.256,0-.513-.039-.769-.06-2.068.018-4.136.055-6.2.05-1.573,0-3.148.084-4.72-.05-1.339.04-2.678.083-4.017.118a11.067,11.067,0,0,0-7.314,2.7c-2.919,2.954-2.663,7.82-1.112,10.32A8.669,8.669,0,0,0,79.294,76.5c.878.161,1.778.206,2.667.3,1.905-.011,3.81-.031,5.715-.03,3.2,0,6.4.019,9.6.03,1.3-.1,1.3-.1,1.3-1.464,0-2.644.022-5.287-.01-7.931-.007-.577.174-.692.712-.689,3.776.023,7.553.013,11.33.014.317,0,.651-.1.649.452-.016,4.178-.007,8.356-.008,12.533a.893.893,0,0,1-.049.2c.018,2.408.026,4.816.06,7.223.008.548-.343.45-.661.45q-4.926,0-9.851,0c-1.3,0-2.6-.022-3.894-.033-5.2.01-10.4.012-15.6.035A31.422,31.422,0,0,1,74.71,87c-5.5-1.14-10.068-3.7-13.035-8.654a18.461,18.461,0,0,1-2.45-8.624,20.808,20.808,0,0,1,1.961-10.8A17.445,17.445,0,0,1,71.339,50.3a5.016,5.016,0,0,1,1.546-.451,20.234,20.234,0,0,1,4.907-.942,58.067,58.067,0,0,1,7.141-.123c3.453-.1,6.905.053,10.358.064h0c.3-.021.607-.06.911-.06q9.094,0,18.188,0c3.679,0,7.359-.027,11.038-.039.258,0,.517.022.775.033H136.84c2.553,0,5.1-.1,7.661.05a14.889,14.889,0,0,0,2.83-.36,9.048,9.048,0,0,0-.318-17.892,23.119,23.119,0,0,0-3.45-.262l-7.572-.032q-3.394.016-6.788.031c-1.14,0-1.14,0-1.21,1.112.01,3.258.016,6.515.035,9.773,0,.372-.177.42-.481.417-2.054-.018-4.107-.024-6.161-.035q-2.792.017-5.584.036c-.262,0-.471-.02-.46-.364.039-1.293-.08-2.589.06-3.881-.018-1.032-.047-2.064-.05-3.1q-.014-4.019-.007-8.038c0-.256.035-.512.054-.767q-.023-3.15-.049-6.3c0-.274.053-.458.384-.446,1.083.039,2.169-.073,3.25.06a.371.371,0,0,0,.3.393.371.371,0,0,1-.3-.393c.235-.015.469-.043.7-.043,8.714,0,17.428-.031,26.142,0A24.694,24.694,0,0,1,157,21.15a17.911,17.911,0,0,1,10.011,13.575A25.1,25.1,0,0,1,166.235,47.376Zm-38.211,31.69q-.011-4.815-.033-9.63c.012-.659-.009-1.32.045-1.976.043-.529-.124-.68-.661-.676q-5.657.038-11.314.008c-.538,0-.729.117-.722.7.031,2.545,0,5.091.012,7.637a6.394,6.394,0,0,0,.055,1.547,1.03,1.03,0,0,0-.042.207c-.007,3.4,0,6.8-.028,10.2,0,.555.284.53.662.53,3.778,0,7.555-.012,11.333.011.537,0,.722-.112.714-.691C128.009,84.307,128.029,81.686,128.023,79.065ZM99.01,41.644q5.908-.018,11.816,0c.286,0,.441-.064.432-.388-.043-1.435.077-2.873-.062-4.307.017-.256.048-.513.049-.769q.009-5.075.009-10.151c0-.326-.035-.653-.054-.979.016-1.959.029-3.918.054-5.877,0-.341-.134-.446-.463-.446q-5.883.01-11.766,0c-.324,0-.459.093-.457.443.023,2.622.029,5.244.04,7.865h0q0,6.946,0,13.891C98.595,41.243,98.377,41.646,99.01,41.644Z" transform="translate(-59.177 -18.719)" fill="url(#radial-gradient)"/>
</svg>
