<svg id="Component_12_2" data-name="Component 12 – 2" xmlns="http://www.w3.org/2000/svg" width="130" height="130" viewBox="0 0 130 130">
  <circle id="Ellipse_10" data-name="Ellipse 10" cx="65" cy="65" r="65" fill="#013a7b" opacity="0.03"/>
  <g id="startup_1_" data-name="startup (1)" transform="translate(-72.199 32)">
    <g id="Group_10" data-name="Group 10" transform="translate(119.199 0)">
      <path id="Path_20" data-name="Path 20" d="M153.983,38.282l-5.058-2.908a44.973,44.973,0,0,0,1.9-10.968,30.3,30.3,0,0,0-.376-4.789.967.967,0,1,0-1.909.307,28.36,28.36,0,0,1,.351,4.482c0,7.393-5.258,21.022-6.457,24.035h-11.2c-.284-.712-.8-2.017-1.406-3.681a.967.967,0,0,0-1.815.666c.45,1.227.848,2.262,1.143,3.015h-8.024V39.679l4.161-2.393q.549,1.841,1.219,3.852a.967.967,0,0,0,1.834-.611c-2.335-7.007-3.569-12.582-3.569-16.122a26.248,26.248,0,0,1,2.8-12.055h18.5a25.3,25.3,0,0,1,1.416,3.356.967.967,0,1,0,1.831-.621A28.1,28.1,0,0,0,137.293.116a.967.967,0,0,0-.919,0,24,24,0,0,0-4.391,3.3.967.967,0,0,0,1.312,1.42,24.645,24.645,0,0,1,3.538-2.743,26.91,26.91,0,0,1,8.155,8.325H128.671a26.847,26.847,0,0,1,1.67-2.383.967.967,0,1,0-1.521-1.194,27.774,27.774,0,0,0-5.976,17.565,43.742,43.742,0,0,0,1.9,10.967l-5.059,2.909a.967.967,0,0,0-.485.838V49.407a.967.967,0,0,0,.967.967h8.357a8.749,8.749,0,0,0-1.484,4.809c0,3.956,3.42,6.942,3.566,7.067a.967.967,0,0,0,1.454-.226l.354-.576,3.694,4.222a.967.967,0,0,0,1.455,0l3.694-4.222.354.576a.967.967,0,0,0,1.454.226c.146-.125,3.566-3.111,3.566-7.067a8.751,8.751,0,0,0-1.484-4.809H153.5a.967.967,0,0,0,.967-.967V39.12A.967.967,0,0,0,153.983,38.282Zm-14.21,15.553c0,2.038-2.068,3.387-2.942,3.867-.876-.477-2.938-1.816-2.938-3.867a5.827,5.827,0,0,1,1.175-3.461H138.6A5.825,5.825,0,0,1,139.773,53.834Zm2.833,6.119-.391-.636a.967.967,0,0,0-1.551-.13l-3.83,4.377L133,59.188a.967.967,0,0,0-1.551.13l-.391.636a7.756,7.756,0,0,1-2.089-4.771,7.231,7.231,0,0,1,2.006-4.809H132.8a7.611,7.611,0,0,0-.838,3.461c0,3.846,4.306,5.756,4.489,5.835a.967.967,0,0,0,.769,0c.183-.079,4.489-1.989,4.489-5.835a7.612,7.612,0,0,0-.838-3.461h1.821a7.229,7.229,0,0,1,2.006,4.809A7.756,7.756,0,0,1,142.606,59.954Zm9.929-11.514h-8.021c.831-2.115,2.466-6.444,3.864-11.152l4.158,2.391V48.44Z" transform="translate(-119.199 0)" fill="#013a7b"/>
      <path id="Path_21" data-name="Path 21" d="M187.89,151.213a8.78,8.78,0,1,0,8.78-8.78A8.79,8.79,0,0,0,187.89,151.213Zm15.626,0a6.846,6.846,0,1,1-6.846-6.846A6.854,6.854,0,0,1,203.516,151.213Z" transform="translate(-179.035 -124.072)" fill="#013a7b"/>
      <path id="Path_22" data-name="Path 22" d="M220.215,179.371a4.613,4.613,0,1,0,4.613-4.613A4.618,4.618,0,0,0,220.215,179.371Zm7.292,0a2.679,2.679,0,1,1-2.679-2.679A2.682,2.682,0,0,1,227.507,179.371Z" transform="translate(-207.193 -152.231)" fill="#013a7b"/>
    </g>
  </g>
</svg>
